<?xml version="1.0" standalone="no"?>
<!DOCTYPE svg PUBLIC "-//W3C//DTD SVG 20010904//EN"
 "http://www.w3.org/TR/2001/REC-SVG-20010904/DTD/svg10.dtd">
<svg version="1.0" xmlns="http://www.w3.org/2000/svg"
 width="700.000000pt" height="700.000000pt" viewBox="0 0 700.000000 700.000000"
 preserveAspectRatio="xMidYMid meet">
<metadata>
Created by potrace 1.11, written by Peter Selinger 2001-2013
</metadata>
<g transform="translate(0.000000,700.000000) scale(0.100000,-0.100000)"
fill="#000000" stroke="none">
<path d="M1895 5666 c-167 -61 -538 -233 -990 -458 -435 -218 -560 -293 -600
-362 -54 -94 -65 -271 -65 -1066 0 -642 11 -995 35 -1133 20 -117 46 -144 250
-269 351 -215 1929 -1087 2525 -1396 401 -207 407 -208 622 -99 488 250 2587
1455 2908 1670 82 54 130 108 145 162 22 75 35 526 35 1215 0 569 -5 709 -30
801 -24 87 -71 119 -593 396 -446 236 -993 506 -1091 538 -81 26 -93 28 -142
17 -77 -16 -201 -72 -494 -225 -140 -73 -405 -211 -588 -306 l-332 -173 -83
43 c-45 23 -257 137 -472 254 -859 467 -846 462 -1040 391z m3145 -1320 c49
-25 98 -74 122 -121 29 -56 35 -158 14 -223 -36 -106 -135 -207 -229 -233 -63
-17 -161 18 -231 82 -178 162 -141 426 71 505 53 20 206 14 253 -10z m-2862
-110 c69 -36 125 -126 161 -255 38 -138 89 -184 244 -221 102 -23 139 -40 184
-83 113 -107 25 -235 -193 -281 -90 -19 -113 -28 -153 -61 -46 -40 -68 -89
-96 -222 -28 -135 -64 -213 -116 -255 -127 -102 -280 31 -319 278 -19 120 -98
197 -235 230 -152 37 -171 44 -212 79 -70 59 -81 142 -29 210 34 45 96 73 202
91 180 31 230 71 276 219 47 153 90 228 152 266 37 22 96 25 134 5z m2277
-452 c70 -33 148 -103 174 -157 43 -89 15 -211 -67 -295 -125 -128 -317 -138
-432 -22 -131 130 -102 392 51 470 89 46 184 47 274 4z m1142 0 c100 -48 147
-133 148 -264 0 -73 -4 -93 -28 -142 -91 -185 -338 -200 -498 -31 -57 60 -79
105 -79 161 0 127 120 269 254 301 60 14 144 4 203 -25z m-620 -526 c80 -29
162 -112 192 -193 29 -75 26 -178 -7 -241 -25 -48 -87 -107 -139 -130 -58 -26
-205 -25 -263 2 -102 47 -155 134 -154 254 0 93 34 171 106 243 86 86 160 105
265 65z"/>
</g>
</svg>
